<svg width="89" height="58" viewBox="0 0 89 58" fill="black" xmlns="http://www.w3.org/2000/svg">
<path fill-rule="evenodd" clip-rule="evenodd" d="M11.4704 29.5685C11.2307 19.5024 19.3324 11.2099 29.3995 11.2099C31.7964 11.2099 34.0016 11.6413 36.063 12.5041H36.1109C38.3161 9.34051 41.1924 6.65623 44.4523 4.64303L44.4043 4.59509L42.1992 3.30089C38.3641 1.38355 33.9537 0.32901 29.3995 0.32901C13.2442 0.32901 0.204817 13.6066 0.588326 29.8081C1.01978 44.6196 13.1962 57.3699 28.6325 57.8492L28.9201 47.0642C19.2844 46.8245 11.7101 38.7238 11.4704 29.5685Z" fill="url(#paint0_linear_144_70)"/>
<path d="M29.4472 57.8972C13.6753 57.9451 0.588043 44.5717 0.588043 29.1371H11.4701C11.4701 39.0114 19.5718 47.0642 29.4472 47.0642C37.405 47.0642 44.2123 41.8394 46.5133 34.6015H31.125C31.125 34.6015 30.7894 31.9651 30.7894 29.0891C30.7894 26.309 31.3647 23.7206 31.3647 23.7206H57.731C57.731 23.7206 58.2104 25.2065 58.2104 29.185C58.2583 44.9551 45.3149 57.8492 29.4472 57.8972Z" fill="white"/>
<path d="M59.602 0.32901C45.6039 0.32901 33.9068 10.395 31.3661 23.7206H42.5838C44.8848 16.4347 51.6442 11.2099 59.6499 11.2099C69.5253 11.2099 77.5311 19.2148 77.5311 29.137C77.5311 39.0593 69.4295 47.0642 59.5541 47.0642C57.2051 47.0642 54.952 46.5848 52.8906 45.77C50.6375 48.9336 47.7611 51.6179 44.4534 53.6311C48.8637 56.3633 54.0411 57.9451 59.602 57.9451C75.5177 57.9451 88.4132 45.051 88.4132 29.137C88.4132 13.2231 75.4697 0.32901 59.602 0.32901Z" fill="url(#paint1_linear_144_70)"/>
<defs>
<linearGradient id="paint0_linear_144_70" x1="-3.97463" y1="35.8073" x2="53.7035" y2="23.4883" gradientUnits="userSpaceOnUse">
<stop offset="0.2682" stop-color="white"/>
<stop offset="1" stop-color="white" stop-opacity="0"/>
</linearGradient>
<linearGradient id="paint1_linear_144_70" x1="38.3639" y1="39.0509" x2="85.9424" y2="16.8622" gradientUnits="userSpaceOnUse">
<stop stop-color="white" stop-opacity="0"/>
<stop offset="0.6313" stop-color="white"/>
</linearGradient>
</defs>
</svg>
