<svg width="152" height="105" viewBox="0 0 152 105" fill="none" xmlns="http://www.w3.org/2000/svg">
<path d="M20.6635 80.1575V95.1895C20.6635 98.5001 19.8023 100.961 18.0799 102.571C16.3575 104.182 13.841 104.987 10.5304 104.987C8.78557 104.987 7.13027 104.775 5.56444 104.35C3.99861 103.925 2.70121 103.309 1.67224 102.504L3.75255 98.7461C4.5131 99.3725 5.47496 99.8646 6.63815 100.222C7.80134 100.603 8.96452 100.793 10.1277 100.793C11.9396 100.793 13.2706 100.379 14.1206 99.5514C14.993 98.7461 15.4292 97.5158 15.4292 95.8605V95.0888C14.0646 96.5875 12.1633 97.3369 9.72507 97.3369C8.06976 97.3369 6.54867 96.979 5.1618 96.2632C3.79729 95.525 2.7124 94.496 1.90711 93.1763C1.10183 91.8565 0.699188 90.3354 0.699188 88.613C0.699188 86.8906 1.10183 85.3695 1.90711 84.0497C2.7124 82.7299 3.79729 81.7122 5.1618 80.9963C6.54867 80.2582 8.06976 79.8891 9.72507 79.8891C12.3422 79.8891 14.3331 80.7503 15.6976 82.4727V80.1575H20.6635ZM10.7652 93.042C12.1521 93.042 13.2817 92.6394 14.1541 91.8341C15.0489 91.0065 15.4963 89.9328 15.4963 88.613C15.4963 87.2932 15.0489 86.2307 14.1541 85.4254C13.2817 84.5978 12.1521 84.1839 10.7652 84.1839C9.37835 84.1839 8.23753 84.5978 7.34277 85.4254C6.44801 86.2307 6.00063 87.2932 6.00063 88.613C6.00063 89.9328 6.44801 91.0065 7.34277 91.8341C8.23753 92.6394 9.37835 93.042 10.7652 93.042Z" fill="white"/>
<path d="M34.125 98.4777C32.2236 98.4777 30.5124 98.0862 28.9913 97.3033C27.4926 96.498 26.3182 95.3908 25.4682 93.9815C24.6182 92.5723 24.1932 90.9729 24.1932 89.1834C24.1932 87.3939 24.6182 85.7945 25.4682 84.3852C26.3182 82.976 27.4926 81.8799 28.9913 81.097C30.5124 80.2917 32.2236 79.8891 34.125 79.8891C36.0263 79.8891 37.7264 80.2917 39.2251 81.097C40.7238 81.8799 41.8982 82.976 42.7482 84.3852C43.5982 85.7945 44.0233 87.3939 44.0233 89.1834C44.0233 90.9729 43.5982 92.5723 42.7482 93.9815C41.8982 95.3908 40.7238 96.498 39.2251 97.3033C37.7264 98.0862 36.0263 98.4777 34.125 98.4777ZM34.125 94.1829C35.4671 94.1829 36.5632 93.7355 37.4132 92.8407C38.2856 91.9236 38.7218 90.7045 38.7218 89.1834C38.7218 87.6623 38.2856 86.4544 37.4132 85.5596C36.5632 84.6425 35.4671 84.1839 34.125 84.1839C32.7828 84.1839 31.6756 84.6425 30.8032 85.5596C29.9308 86.4544 29.4946 87.6623 29.4946 89.1834C29.4946 90.7045 29.9308 91.9236 30.8032 92.8407C31.6756 93.7355 32.7828 94.1829 34.125 94.1829Z" fill="white"/>
<path d="M54.5082 79.8891C57.3043 79.8891 59.4517 80.5602 60.9504 81.9023C62.4492 83.2221 63.1985 85.2241 63.1985 87.9084V98.2093H58.2997V95.9612C57.3155 97.6389 55.4812 98.4777 52.797 98.4777C51.4101 98.4777 50.2022 98.2428 49.1732 97.7731C48.1666 97.3033 47.3948 96.6546 46.858 95.827C46.3211 94.9993 46.0527 94.0598 46.0527 93.0085C46.0527 91.3308 46.679 90.011 47.9317 89.0492C49.2067 88.0873 51.164 87.6064 53.8036 87.6064H57.9642C57.9642 86.4656 57.6175 85.5932 56.924 84.9892C56.2306 84.3629 55.1904 84.0497 53.8036 84.0497C52.8417 84.0497 51.891 84.2063 50.9515 84.5195C50.0344 84.8103 49.2515 85.2129 48.6028 85.7274L46.7238 82.0701C47.708 81.3766 48.8824 80.8398 50.2469 80.4595C51.6338 80.0792 53.0542 79.8891 54.5082 79.8891ZM54.1055 94.9546C55.0003 94.9546 55.7944 94.7533 56.4878 94.3506C57.1813 93.9256 57.6734 93.3105 57.9642 92.5052V90.6597H54.374C52.2266 90.6597 51.1528 91.3644 51.1528 92.7736C51.1528 93.4447 51.4101 93.9815 51.9246 94.3842C52.4614 94.7645 53.1884 94.9546 54.1055 94.9546Z" fill="white"/>
<path d="M78.9078 79.8891C81.1447 79.8891 82.9454 80.5602 84.3099 81.9023C85.6968 83.2444 86.3903 85.2353 86.3903 87.8748V98.2093H81.1559V88.6801C81.1559 87.2485 80.8428 86.186 80.2164 85.4925C79.5901 84.7767 78.6841 84.4188 77.4986 84.4188C76.1788 84.4188 75.1275 84.8326 74.3446 85.6603C73.5617 86.4656 73.1702 87.6735 73.1702 89.2841V98.2093H67.9358V73.3126H73.1702V82.0365C73.8636 81.3431 74.7025 80.8174 75.6867 80.4595C76.6709 80.0792 77.7446 79.8891 78.9078 79.8891Z" fill="white"/>
<path d="M109.014 89.2505C109.014 89.3176 108.981 89.7874 108.914 90.6597H95.2573C95.5033 91.7782 96.0849 92.6618 97.0021 93.3105C97.9192 93.9592 99.06 94.2835 100.425 94.2835C101.364 94.2835 102.192 94.1493 102.907 93.8809C103.646 93.5901 104.328 93.1427 104.954 92.5387L107.739 95.5585C106.039 97.5046 103.556 98.4777 100.29 98.4777C98.2547 98.4777 96.454 98.0862 94.8882 97.3033C93.3224 96.498 92.1144 95.3908 91.2644 93.9815C90.4144 92.5723 89.9894 90.9729 89.9894 89.1834C89.9894 87.4162 90.4032 85.828 91.2309 84.4188C92.0809 82.9872 93.2329 81.8799 94.6869 81.097C96.1632 80.2917 97.8073 79.8891 99.6192 79.8891C101.386 79.8891 102.986 80.2694 104.417 81.0299C105.849 81.7904 106.967 82.8865 107.773 84.3181C108.6 85.7274 109.014 87.3715 109.014 89.2505ZM99.6528 83.8484C98.4672 83.8484 97.4718 84.1839 96.6665 84.855C95.8612 85.5261 95.3691 86.4432 95.1902 87.6064H104.082C103.903 86.4656 103.411 85.5596 102.605 84.8885C101.8 84.1951 100.816 83.8484 99.6528 83.8484Z" fill="white"/>
<path d="M119.289 79.8891C122.085 79.8891 124.232 80.5602 125.731 81.9023C127.23 83.2221 127.979 85.2241 127.979 87.9084V98.2093H123.08V95.9612C122.096 97.6389 120.262 98.4777 117.577 98.4777C116.191 98.4777 114.983 98.2428 113.954 97.7731C112.947 97.3033 112.175 96.6546 111.638 95.827C111.102 94.9993 110.833 94.0598 110.833 93.0085C110.833 91.3308 111.459 90.011 112.712 89.0492C113.987 88.0873 115.944 87.6064 118.584 87.6064H122.745C122.745 86.4656 122.398 85.5932 121.704 84.9892C121.011 84.3629 119.971 84.0497 118.584 84.0497C117.622 84.0497 116.671 84.2063 115.732 84.5195C114.815 84.8103 114.032 85.2129 113.383 85.7274L111.504 82.0701C112.488 81.3766 113.663 80.8398 115.027 80.4595C116.414 80.0792 117.835 79.8891 119.289 79.8891ZM118.886 94.9546C119.781 94.9546 120.575 94.7533 121.268 94.3506C121.962 93.9256 122.454 93.3105 122.745 92.5052V90.6597H119.154C117.007 90.6597 115.933 91.3644 115.933 92.7736C115.933 93.4447 116.191 93.9815 116.705 94.3842C117.242 94.7645 117.969 94.9546 118.886 94.9546Z" fill="white"/>
<path d="M151.3 73.3126V98.2093H146.301V96.129C145.003 97.6948 143.124 98.4777 140.664 98.4777C138.964 98.4777 137.42 98.0974 136.033 97.3369C134.669 96.5763 133.595 95.4914 132.812 94.0822C132.029 92.673 131.638 91.04 131.638 89.1834C131.638 87.3268 132.029 85.6938 132.812 84.2846C133.595 82.8753 134.669 81.7904 136.033 81.0299C137.42 80.2694 138.964 79.8891 140.664 79.8891C142.968 79.8891 144.768 80.6161 146.066 82.0701V73.3126H151.3ZM141.57 94.1829C142.889 94.1829 143.986 93.7355 144.858 92.8407C145.73 91.9236 146.167 90.7045 146.167 89.1834C146.167 87.6623 145.73 86.4544 144.858 85.5596C143.986 84.6425 142.889 84.1839 141.57 84.1839C140.228 84.1839 139.12 84.6425 138.248 85.5596C137.376 86.4544 136.939 87.6623 136.939 89.1834C136.939 90.7045 137.376 91.9236 138.248 92.8407C139.12 93.7355 140.228 94.1829 141.57 94.1829Z" fill="white"/>
<path fill-rule="evenodd" clip-rule="evenodd" d="M43.4704 29.5685C43.2307 19.5024 51.3324 11.2099 61.3995 11.2099C63.7964 11.2099 66.0016 11.6413 68.063 12.5041H68.1109C70.3161 9.34051 73.1924 6.65623 76.4523 4.64303L76.4043 4.59509L74.1992 3.30089C70.3641 1.38355 65.9537 0.32901 61.3995 0.32901C45.2442 0.32901 32.2048 13.6066 32.5883 29.8081C33.0198 44.6196 45.1962 57.3699 60.6325 57.8492L60.9201 47.0642C51.2844 46.8245 43.7101 38.7238 43.4704 29.5685Z" fill="url(#paint0_linear_144_68)"/>
<path d="M61.4472 57.8972C45.6753 57.9451 32.588 44.5717 32.588 29.1371H43.4701C43.4701 39.0114 51.5718 47.0642 61.4472 47.0642C69.405 47.0642 76.2123 41.8394 78.5133 34.6015H63.125C63.125 34.6015 62.7894 31.9651 62.7894 29.0891C62.7894 26.309 63.3647 23.7206 63.3647 23.7206H89.731C89.731 23.7206 90.2104 25.2065 90.2104 29.185C90.2583 44.9551 77.3149 57.8492 61.4472 57.8972Z" fill="white"/>
<path d="M91.602 0.32901C77.6039 0.32901 65.9068 10.395 63.3661 23.7206H74.5838C76.8848 16.4347 83.6442 11.2099 91.6499 11.2099C101.525 11.2099 109.531 19.2148 109.531 29.137C109.531 39.0593 101.429 47.0642 91.5541 47.0642C89.2051 47.0642 86.952 46.5848 84.8906 45.77C82.6375 48.9336 79.7611 51.6179 76.4534 53.6311C80.8637 56.3633 86.0411 57.9451 91.602 57.9451C107.518 57.9451 120.413 45.051 120.413 29.137C120.413 13.2231 107.47 0.32901 91.602 0.32901Z" fill="url(#paint1_linear_144_68)"/>
<defs>
<linearGradient id="paint0_linear_144_68" x1="28.0254" y1="35.8073" x2="85.7035" y2="23.4883" gradientUnits="userSpaceOnUse">
<stop offset="0.2682" stop-color="white"/>
<stop offset="1" stop-color="white" stop-opacity="0"/>
</linearGradient>
<linearGradient id="paint1_linear_144_68" x1="70.3639" y1="39.0509" x2="117.942" y2="16.8622" gradientUnits="userSpaceOnUse">
<stop stop-color="white" stop-opacity="0"/>
<stop offset="0.6313" stop-color="white"/>
</linearGradient>
</defs>
</svg>
