<svg width="89" height="92" viewBox="0 0 89 92" fill="none" xmlns="http://www.w3.org/2000/svg">
<path d="M53.3008 91.1652C53.3008 91.1652 54.7206 90.3133 55.0045 89.7454C55.0045 89.4615 55.0045 88.8936 55.0045 88.6097L54.1526 84.0665L56.1403 85.4862C56.1403 85.4862 58.4118 86.0541 59.2637 84.9183C59.2637 84.9183 59.2637 84.6344 59.5476 84.3504C59.8316 83.4986 59.5476 82.3628 58.6958 81.7949L53.0169 77.5357L52.165 73.5605L60.3995 79.5233C60.3995 79.5233 62.671 80.0912 63.5229 78.9555C63.5229 78.9555 63.5229 78.6715 63.8068 78.3876C64.0908 77.5357 63.8069 76.3999 62.955 75.832L51.0293 67.0297L47.6219 49.141L64.9427 55.1039L72.0413 68.1655C72.0413 68.1655 74.0289 69.5852 74.8808 69.0173C75.4487 69.0173 75.7326 68.4494 76.0166 67.8815C76.0166 67.3136 76.0166 66.7457 76.0166 66.1778L71.1895 57.3755L75.1647 58.7952L78.5721 65.042C78.5721 65.042 80.5597 66.4618 81.4116 65.8939C81.9795 65.8939 82.2634 65.326 82.5473 64.7581C82.5473 64.1902 82.5473 63.6223 82.5473 63.0544L81.4116 60.7828L85.6708 62.2026C85.6708 62.2026 87.9424 62.2026 88.5103 60.7828C88.7942 59.647 88.5102 58.5112 87.0905 57.9434L82.8313 56.5236L85.1029 55.6718C85.1029 55.6718 85.9548 54.8199 86.2387 54.2521C86.2387 53.6842 86.2387 53.1163 86.2387 52.5484C85.6708 51.4126 84.535 50.8447 83.3992 51.4126L76.8684 54.2521L72.8931 52.8323L81.9794 48.8571C81.9794 48.8571 82.8313 48.0052 83.1153 47.4373C83.1153 46.8694 83.1153 46.3015 83.1153 45.7336C82.5474 44.5978 81.4116 44.03 80.2758 44.5978L66.6463 50.5607L49.3255 44.5978L63.2389 32.6721L78.0042 33.24C78.0042 33.24 79.7079 32.6721 79.9918 31.8202C79.9918 31.8202 79.9918 31.5363 79.9918 31.2523C79.9918 30.1165 79.14 28.9807 78.0042 28.9807H68.066L71.1895 25.8573H78.2882C78.2882 25.8573 79.9918 25.5734 80.2758 24.7216C80.2758 24.7216 80.2758 24.4376 80.2758 24.1537C80.2758 23.0179 79.4239 21.8821 78.2882 21.8821H75.7326L79.14 18.7587C79.424 18.7587 79.7079 18.1908 79.7079 17.9068C79.7079 17.3389 79.7079 16.4871 79.424 15.6352C78.5721 14.7834 77.1524 14.4994 76.3005 15.6352L72.8931 18.4747V15.9192C72.8931 15.9192 72.3253 13.6476 71.1895 13.6476C70.0537 13.6476 68.9179 14.4994 68.9179 15.6352L68.066 22.7339L64.9427 25.5734L66.0784 15.6352C66.0784 15.6352 65.2266 13.3637 64.0908 13.3637C62.955 13.3637 61.8192 14.2155 61.8192 15.3513L60.1156 30.1165L46.2022 42.0423L42.7948 24.1537L50.4613 11.66C50.4613 11.66 50.4613 11.376 50.4613 11.0921C50.7453 10.2402 50.4613 9.10445 49.6095 8.53656C48.4737 7.96867 47.3379 8.25261 46.486 9.10445L41.0911 17.6229L40.2392 13.6476L43.9306 7.68471C43.9306 7.68471 43.9306 7.40077 43.9306 7.11682C44.2145 6.26498 43.9306 5.1292 43.0787 4.5613C41.9429 3.99341 40.8071 4.27736 39.9553 5.1292L38.5356 7.11682L37.6837 2.57367C37.6837 2.57367 36.264 0.586041 35.1282 0.869988C33.9924 0.869988 33.1406 2.28973 33.4245 3.42552L34.2764 7.96867L32.2887 6.54893C32.2887 6.54893 30.0172 5.98103 29.1653 7.11682C28.3135 8.25261 28.5974 9.3884 29.7332 10.2402L35.4121 14.4995L36.264 18.7587L28.0295 12.7958C28.0295 12.7958 25.7579 12.2279 24.9061 13.3637C24.0542 14.2155 24.3382 15.6352 25.474 16.4871L37.3997 25.2894L40.8071 43.1781L23.4863 37.2152L16.3877 24.1537C16.3877 24.1537 14.4001 22.7339 13.5482 23.3018C12.4124 23.8697 12.1285 25.2894 12.6964 26.1413L17.5235 34.9436L13.5482 33.5239L10.1408 27.2771C10.1408 27.2771 8.15321 25.8573 7.30137 26.4252C6.16558 26.9931 5.88164 28.4129 6.44953 29.2647L7.58532 31.5363L3.3261 30.1165C3.3261 30.1165 1.05454 30.1165 0.486641 31.5363C0.202694 32.6721 0.486647 33.8078 1.90638 34.3757L6.16558 35.7955L3.894 36.6473C3.894 36.6473 2.19032 38.351 2.75822 39.4868C3.32611 40.6226 4.46191 41.1905 5.5977 40.6226L12.1285 37.7831L16.1037 39.2029L7.01741 43.1781C7.01741 43.1781 5.31373 44.8818 5.88163 46.0176C6.44952 47.1534 7.58532 47.7213 8.72111 47.1534L22.3506 41.1905L39.6713 47.1534L25.7579 59.0792L10.9927 58.5113C10.9927 58.5113 8.72111 59.3631 8.72111 60.4989C8.72111 61.6347 9.57294 62.7705 10.7087 62.7705H20.6469L17.5235 65.8939H10.4248C10.4248 65.8939 8.1532 66.4618 8.1532 67.8815C8.1532 69.3013 9.00506 70.1531 10.1408 70.1531H12.6964L9.28899 73.2765C8.43715 74.1284 8.1532 75.5481 9.28899 76.3999C10.4248 77.2518 11.5606 77.5357 12.4124 76.3999L15.8198 73.5605V76.116C15.8198 76.116 16.3877 78.3876 17.5235 78.3876C18.6592 78.3876 19.5111 77.8197 19.7951 76.9678C19.7951 76.9678 19.7951 76.6839 19.7951 76.3999L20.6469 69.3012L23.7703 66.4618L22.6345 76.3999C22.6345 76.3999 23.4863 78.6715 24.6221 78.6715C25.7579 78.6715 26.6098 78.1036 26.8937 77.2518C26.8937 77.2518 26.8937 76.9678 26.8937 76.6839L28.5974 61.9186L42.5108 49.9928L45.9182 67.8815L38.2516 80.3752C38.2516 80.3752 37.9677 82.6468 38.8195 83.4986C39.9553 84.0665 41.0911 83.7825 41.9429 82.9307L47.3379 74.4123L48.1898 78.3876L44.4984 84.3504C44.4984 84.3504 44.2145 86.622 45.0663 87.4739C45.9182 88.3257 47.3379 87.7578 48.1898 86.906L49.6095 84.9183L50.4613 89.4615C50.4613 89.4615 51.8811 91.4491 53.0169 91.1652H53.3008Z" fill="white"/>
</svg>
