<svg xmlns="http://www.w3.org/2000/svg" width="100" height="98" fill="none"><path fill="#fff" d="M49.16 38.197a1.27 1.27 0 0 1-.276 1.04 1.351 1.351 0 0 0 1.736 0 1.27 1.27 0 0 1 .161-1.793 1.342 1.342 0 0 0-2.058 0c.23.192.383.46.436.753ZM49.752 34.062a1.143 1.143 0 1 0-1.167-1.143 1.156 1.156 0 0 0 1.167 1.143ZM49.752 28.567a.989.989 0 1 0-1.013-.988.999.999 0 0 0 1.013.988ZM49.752 23.074a.837.837 0 1 0-.855-.845.845.845 0 0 0 .855.845ZM49.752 17.58a.676.676 0 1 0-.698-.676.69.69 0 0 0 .698.676ZM49.752 12.087a.53.53 0 1 0-.023-1.06.53.53 0 0 0 .023 1.06ZM49.752 6.593a.377.377 0 1 0-.385-.377.382.382 0 0 0 .385.377ZM49.753 1.102a.225.225 0 1 0-.006-.45.225.225 0 0 0 .006.45ZM50.349 59.684a1.271 1.271 0 0 1 .275-1.038 1.342 1.342 0 0 0-1.737 0 1.267 1.267 0 0 1-.159 1.791 1.342 1.342 0 0 0 2.056 0 1.289 1.289 0 0 1-.435-.753ZM49.755 66.104c.645 0 1.168-.511 1.168-1.142 0-.63-.523-1.142-1.168-1.142-.644 0-1.167.511-1.167 1.142 0 .63.523 1.142 1.167 1.142ZM49.756 69.314a.99.99 0 1 0 1.014.989 1 1 0 0 0-1.014-.989ZM49.756 76.48a.846.846 0 0 0 .855-.837.846.846 0 0 0-.855-.836.846.846 0 0 0-.855.836c0 .462.382.837.855.837ZM49.756 81.667a.69.69 0 0 0 .697-.683.69.69 0 0 0-.697-.683.69.69 0 0 0-.698.683.69.69 0 0 0 .698.683ZM49.756 85.796a.53.53 0 1 0 .5.324.534.534 0 0 0-.5-.324ZM49.756 91.297a.377.377 0 1 0 .017.754.377.377 0 0 0-.017-.754ZM49.757 96.783a.225.225 0 0 0-.15.385.223.223 0 0 0 .343-.037.223.223 0 0 0-.106-.332.226.226 0 0 0-.087-.016Z"/><path fill="#fff" d="M47.26 38.461a1.267 1.267 0 0 1-.086 1.071c.274.162.597.222.91.17.314-.053.597-.217.8-.462a1.272 1.272 0 0 1-.16-1.79 1.342 1.342 0 0 0-1.636-.08c-.16.113-.294.259-.39.429.258.149.457.383.562.662ZM46.704 32.04a1.146 1.146 0 0 0-.947 1.322 1.166 1.166 0 0 0 1.351.926 1.143 1.143 0 0 0 .946-1.323 1.162 1.162 0 0 0-1.35-.926ZM44.962 28.075a1.013 1.013 0 0 0 1.171.803.99.99 0 0 0 .821-1.146 1.014 1.014 0 0 0-1.172-.802.99.99 0 0 0-.82 1.145ZM44.168 22.789a.856.856 0 0 0 1.536.334.845.845 0 0 0 .147-.627.855.855 0 0 0-.99-.675.845.845 0 0 0-.693.968ZM43.374 17.504a.696.696 0 0 0 .808.552.684.684 0 0 0 .567-.79.697.697 0 0 0-.809-.553.677.677 0 0 0-.566.79ZM43.207 12.646a.53.53 0 0 0 .439-.613.54.54 0 0 0-.627-.43.53.53 0 0 0-.44.614.539.539 0 0 0 .628.43ZM42.23 7.236a.377.377 0 0 0 .313-.436.385.385 0 0 0-.583-.252.376.376 0 0 0 .27.688ZM41.257 1.828a.225.225 0 0 0 .186-.26.23.23 0 0 0-.266-.18.224.224 0 0 0-.187.259.23.23 0 0 0 .267.181ZM52.248 59.42a1.264 1.264 0 0 1 .088-1.07 1.331 1.331 0 0 0-1.712.294 1.272 1.272 0 0 1 .16 1.791 1.351 1.351 0 0 0 1.636.079 1.32 1.32 0 0 0 .392-.428 1.296 1.296 0 0 1-.564-.666ZM52.805 65.844a1.143 1.143 0 0 0 .947-1.323 1.166 1.166 0 0 0-1.352-.928 1.144 1.144 0 0 0-.948 1.323 1.168 1.168 0 0 0 1.353.928ZM54.545 69.806a1.014 1.014 0 0 0-1.17-.801.992.992 0 0 0-.822 1.145 1.014 1.014 0 0 0 1.173.801.991.991 0 0 0 .82-1.145ZM55.341 75.093a.853.853 0 0 0-.992-.676.844.844 0 0 0-.692.968.855.855 0 0 0 .99.676.845.845 0 0 0 .694-.969ZM56.136 80.38a.698.698 0 0 0-.81-.555.676.676 0 0 0-.566.79.696.696 0 0 0 .808.555.684.684 0 0 0 .568-.79ZM56.301 85.235a.532.532 0 0 0-.44.613.543.543 0 0 0 .63.43.53.53 0 0 0 .439-.614.543.543 0 0 0-.629-.43ZM57.278 90.645a.378.378 0 0 0-.313.436.385.385 0 0 0 .446.306.376.376 0 0 0 .313-.436.384.384 0 0 0-.446-.306ZM58.253 96.055a.225.225 0 0 0-.185.26.23.23 0 0 0 .413.091.226.226 0 0 0 .038-.17.23.23 0 0 0-.266-.181ZM45.437 39.044a1.266 1.266 0 0 1 .105 1.068c.298.112.627.116.927.01.298-.106.548-.315.705-.59a1.293 1.293 0 0 1-.624-.885c-.05-.29.002-.589.147-.845a1.352 1.352 0 0 0-1.135-.108 1.306 1.306 0 0 0-.797.796c.28.103.517.298.672.554ZM44.148 35.028c.645 0 1.167-.511 1.167-1.142 0-.631-.522-1.142-1.167-1.142s-1.168.511-1.168 1.142c0 .63.523 1.142 1.168 1.142ZM41.33 29.206a1.014 1.014 0 0 0 1.296.591.983.983 0 0 0 .077-1.83 1.014 1.014 0 0 0-.77-.028.982.982 0 0 0-.603 1.267ZM40.703 24.636a.834.834 0 0 0 .063-1.55.86.86 0 0 0-1.131.4.828.828 0 0 0-.029.643.86.86 0 0 0 1.097.506ZM38.782 19.472a.677.677 0 0 0 .417-.875.703.703 0 0 0-.895-.407.675.675 0 0 0-.053 1.26.705.705 0 0 0 .531.022ZM36.86 14.31a.529.529 0 0 0 .324-.675.543.543 0 0 0-.695-.316.525.525 0 0 0-.322.676.545.545 0 0 0 .694.316ZM34.938 9.147a.372.372 0 0 0 .23-.481.385.385 0 0 0-.493-.225.374.374 0 0 0-.03.695.387.387 0 0 0 .293.011ZM33.018 3.987a.226.226 0 0 0 .138-.288.232.232 0 0 0-.424-.018.222.222 0 0 0-.007.172.23.23 0 0 0 .293.134Z"/><path fill="#fff" d="M54.07 58.837a1.264 1.264 0 0 1-.104-1.068 1.34 1.34 0 0 0-.926 0c-.299.105-.549.315-.704.59a1.293 1.293 0 0 1 .621.884c.052.29 0 .588-.145.844a1.351 1.351 0 0 0 1.623-.2 1.31 1.31 0 0 0 .31-.489 1.306 1.306 0 0 1-.674-.56ZM55.36 65.138c.645 0 1.167-.512 1.167-1.143 0-.63-.522-1.142-1.167-1.142s-1.168.512-1.168 1.142c0 .631.523 1.143 1.168 1.143ZM58.18 68.675a1.014 1.014 0 0 0-1.298-.59.983.983 0 0 0-.076 1.829c.243.11.519.12.77.029a.981.981 0 0 0 .604-1.267ZM58.805 73.248a.83.83 0 0 0-.507 1.07.858.858 0 0 0 1.573.078.83.83 0 0 0 .029-.642.858.858 0 0 0-1.095-.507ZM60.726 78.41a.675.675 0 0 0-.417.874.703.703 0 0 0 .895.41.675.675 0 0 0 .418-.876.703.703 0 0 0-.896-.409ZM62.649 83.572a.525.525 0 0 0-.042.977.546.546 0 0 0 .714-.254.527.527 0 0 0-.26-.707.54.54 0 0 0-.412-.016ZM64.57 88.734a.375.375 0 0 0-.23.483.389.389 0 0 0 .71.032.375.375 0 0 0 .013-.29.388.388 0 0 0-.493-.225ZM66.492 93.897a.22.22 0 0 0-.136.287.229.229 0 0 0 .293.134.224.224 0 0 0 .138-.287.23.23 0 0 0-.296-.134ZM43.746 39.934a1.274 1.274 0 0 1 .292 1.034c.313.06.637.007.914-.148.276-.154.486-.403.59-.701a1.299 1.299 0 0 1-.77-.764 1.259 1.259 0 0 1 0-.865 1.352 1.352 0 0 0-1.138.088 1.292 1.292 0 0 0-.645.917c.294.058.56.212.757.44ZM42.143 36.048a1.126 1.126 0 0 0 .427-1.559 1.182 1.182 0 0 0-1.936-.127 1.13 1.13 0 0 0-.086 1.27 1.182 1.182 0 0 0 1.595.416ZM39.334 31.297a.974.974 0 0 0 .37-1.351 1.024 1.024 0 0 0-1.678-.11.978.978 0 0 0-.074 1.1 1.024 1.024 0 0 0 1.382.361ZM36.525 26.541a.828.828 0 0 0 .312-1.142.863.863 0 0 0-1.565.2.824.824 0 0 0 .085.636.867.867 0 0 0 1.168.306ZM33.715 21.784a.678.678 0 0 0 .255-.933.706.706 0 0 0-1.156-.077.676.676 0 0 0 .374 1.078.707.707 0 0 0 .527-.069ZM30.905 17.026a.525.525 0 0 0-.13-.971.547.547 0 0 0-.663.373.522.522 0 0 0 .053.403.549.549 0 0 0 .74.195ZM28.106 12.268a.372.372 0 0 0 .14-.507.389.389 0 0 0-.636-.044.371.371 0 0 0-.031.412.391.391 0 0 0 .527.139ZM25.289 7.512a.223.223 0 0 0 .083-.307.232.232 0 0 0-.42.054.221.221 0 0 0 .163.275c.059.015.121.007.174-.022ZM55.764 57.954a1.266 1.266 0 0 1-.292-1.034 1.352 1.352 0 0 0-.916.148 1.303 1.303 0 0 0-.59.701 1.301 1.301 0 0 1 .77.766c.105.278.108.583.01.863a1.353 1.353 0 0 0 1.135-.086 1.3 1.3 0 0 0 .645-.92 1.325 1.325 0 0 1-.762-.438ZM57.365 61.826a1.128 1.128 0 0 0-.427 1.56 1.183 1.183 0 0 0 1.937.128 1.13 1.13 0 0 0 .085-1.27 1.183 1.183 0 0 0-1.595-.418ZM60.175 66.584a.973.973 0 0 0-.37 1.352 1.024 1.024 0 0 0 1.677.112.977.977 0 0 0 .074-1.1 1.014 1.014 0 0 0-1.38-.364ZM62.983 71.342a.825.825 0 0 0-.312 1.14.867.867 0 0 0 1.417.095.828.828 0 0 0-.458-1.32.866.866 0 0 0-.647.085ZM65.793 76.1a.68.68 0 0 0-.342.679.675.675 0 0 0 .513.57.706.706 0 0 0 .73-.242.677.677 0 0 0-.373-1.077.707.707 0 0 0-.528.07ZM68.603 80.857a.52.52 0 0 0-.198.723.548.548 0 0 0 .898.058.522.522 0 0 0 .04-.588.547.547 0 0 0-.74-.193ZM71.412 85.613a.373.373 0 0 0-.141.507.392.392 0 0 0 .637.043.37.37 0 0 0-.205-.588.39.39 0 0 0-.29.038ZM74.231 90.371a.222.222 0 0 0 .056.412.232.232 0 0 0 .24-.08.22.22 0 0 0 .016-.249.233.233 0 0 0-.312-.083Z"/><path fill="#fff" d="M42.707 42.053c.318.008.629-.098.875-.3.244-.2.406-.48.456-.791a1.321 1.321 0 0 1-.895-.622 1.276 1.276 0 0 1-.16-.845 1.35 1.35 0 0 0-1.104.28 1.276 1.276 0 0 0-.471 1.014 1.333 1.333 0 0 1 1.169.732c.081.166.126.347.13.532ZM39.97 37.544a1.124 1.124 0 0 0 .145-1.609 1.183 1.183 0 0 0-1.931.205 1.122 1.122 0 0 0 .142 1.264 1.183 1.183 0 0 0 1.644.14ZM36.484 31.943a1.027 1.027 0 0 0-1.672.177.975.975 0 0 0 .121 1.093 1.027 1.027 0 0 0 1.673-.177.974.974 0 0 0-.122-1.093ZM32.747 29.121a.82.82 0 0 0 .105-1.182.865.865 0 0 0-1.414.15.822.822 0 0 0 .104.93.867.867 0 0 0 1.205.102ZM28.151 24.835a.711.711 0 0 0 .985.084.676.676 0 0 0 .085-.963.708.708 0 0 0-1.153.124.678.678 0 0 0 .083.755ZM25.524 20.71a.522.522 0 0 0 .066-.746.55.55 0 0 0-.895.095.522.522 0 0 0 .065.586.55.55 0 0 0 .764.066ZM21.912 16.502a.372.372 0 0 0 .047-.53.392.392 0 0 0-.636.068.371.371 0 0 0 .046.416.392.392 0 0 0 .543.046ZM18.308 12.295a.221.221 0 0 0 .027-.316.233.233 0 0 0-.379.04.22.22 0 0 0 .028.249.234.234 0 0 0 .324.027ZM56.8 55.828c-.317-.006-.627.1-.874.3-.243.2-.405.481-.455.792a1.32 1.32 0 0 1 .894.623c.15.254.207.553.16.845a1.353 1.353 0 0 0 1.104-.279 1.278 1.278 0 0 0 .473-1.014 1.323 1.323 0 0 1-1.172-.733 1.275 1.275 0 0 1-.13-.534ZM61.04 62.088a1.125 1.125 0 0 0 .144-1.608 1.183 1.183 0 0 0-1.931.202 1.12 1.12 0 0 0 .142 1.264 1.182 1.182 0 0 0 1.645.142ZM63.026 65.94a1.027 1.027 0 0 0 1.424.122.976.976 0 0 0 .125-1.394 1.027 1.027 0 0 0-1.672.177.973.973 0 0 0 .123 1.095ZM66.761 68.755a.824.824 0 0 0-.105 1.183.87.87 0 0 0 1.415-.15.825.825 0 0 0-.105-.93.869.869 0 0 0-1.205-.103ZM71.359 73.05a.71.71 0 0 0-.984-.083.674.674 0 0 0-.086.961.71.71 0 0 0 .983.085.676.676 0 0 0 .087-.963ZM73.984 77.172a.522.522 0 0 0-.066.745.55.55 0 0 0 .894-.094.522.522 0 0 0-.064-.586.551.551 0 0 0-.764-.065ZM77.596 81.38a.372.372 0 0 0-.047.53.392.392 0 0 0 .636-.067.372.372 0 0 0-.046-.416.392.392 0 0 0-.543-.048ZM81.209 85.588a.217.217 0 0 0-.073.24.233.233 0 0 0 .422.037.219.219 0 0 0-.027-.25.233.233 0 0 0-.322-.027Z"/><path fill="#fff" d="M40.955 42.48a1.294 1.294 0 0 1 .637.874c.313-.047.6-.204.807-.444.205-.238.314-.543.308-.857a1.32 1.32 0 0 1-.99-.461 1.254 1.254 0 0 1-.31-.81 1.333 1.333 0 0 0-1.037.462 1.276 1.276 0 0 0-.285 1.08c.299-.047.605.008.87.157ZM36.449 39.519a1.183 1.183 0 0 0 1.645-.14 1.122 1.122 0 0 0-.143-1.609 1.183 1.183 0 0 0-1.646.14 1.124 1.124 0 0 0 .144 1.609ZM33.666 34.453a1.027 1.027 0 0 0-1.424.122.974.974 0 0 0 .125 1.394 1.027 1.027 0 0 0 1.424-.122.976.976 0 0 0-.125-1.394ZM28.177 31.242a.827.827 0 0 0 .106 1.182.869.869 0 0 0 1.203-.103.823.823 0 0 0-.105-1.182.866.866 0 0 0-1.204.103ZM25.182 28.783a.675.675 0 0 0-.086-.963.71.71 0 0 0-.983.085.677.677 0 0 0 .086.961.708.708 0 0 0 .983-.083ZM20.878 25.254a.523.523 0 0 0-.066-.747.55.55 0 0 0-.764.066.52.52 0 0 0 .068.745.55.55 0 0 0 .762-.064ZM16.574 21.723a.37.37 0 0 0-.047-.53.392.392 0 0 0-.543.045.369.369 0 0 0 .048.53.392.392 0 0 0 .542-.045ZM12.271 18.191a.219.219 0 0 0 .029-.247.221.221 0 0 0-.056-.068.234.234 0 0 0-.367.105.22.22 0 0 0 .072.24.233.233 0 0 0 .322-.03ZM59.424 55.558a1.337 1.337 0 0 1-1.284-.524 1.285 1.285 0 0 1-.222-.507 1.327 1.327 0 0 0-.81.446 1.274 1.274 0 0 0-.307.855 1.334 1.334 0 0 1 .992.461c.194.226.304.512.31.81a1.334 1.334 0 0 0 1.037-.462 1.267 1.267 0 0 0 .284-1.08ZM63.06 58.362a1.183 1.183 0 0 0-1.646.142 1.125 1.125 0 0 0 .143 1.609 1.182 1.182 0 0 0 1.646-.142 1.125 1.125 0 0 0-.144-1.608ZM65.842 63.428a1.027 1.027 0 0 0 1.426-.122.974.974 0 0 0-.125-1.392 1.027 1.027 0 0 0-1.426.121.974.974 0 0 0 .125 1.393ZM71.331 66.641a.824.824 0 0 0-.104-1.182.867.867 0 0 0-1.368.39.823.823 0 0 0 .268.895.87.87 0 0 0 1.204-.103ZM74.327 69.098a.676.676 0 0 0 .084.961.711.711 0 0 0 .985-.084.676.676 0 0 0-.086-.962.708.708 0 0 0-.983.085ZM78.623 72.63a.52.52 0 0 0 .068.744.55.55 0 0 0 .762-.064.522.522 0 0 0-.066-.747.551.551 0 0 0-.764.066ZM82.935 76.16a.369.369 0 0 0 .048.53.392.392 0 0 0 .542-.046.372.372 0 0 0-.047-.531.392.392 0 0 0-.543.047ZM87.24 79.692a.22.22 0 0 0 .03.315.233.233 0 0 0 .322-.027.218.218 0 0 0-.03-.315.233.233 0 0 0-.322.027ZM39.941 44.072a1.308 1.308 0 0 1 .782.754c.301-.1.556-.304.717-.576.16-.27.213-.589.152-.896a1.335 1.335 0 0 1-1.06-.285 1.28 1.28 0 0 1-.447-.745 1.319 1.319 0 0 0-.94.631 1.266 1.266 0 0 0-.09 1.11c.288-.097.6-.094.886.007ZM34.979 41.921a1.182 1.182 0 0 0 1.595-.419 1.13 1.13 0 0 0-.428-1.56 1.183 1.183 0 0 0-1.595.418 1.127 1.127 0 0 0 .428 1.561ZM30.831 39.25a1 1 0 0 0 1.012-.988 1 1 0 0 0-1.012-.989 1 1 0 0 0-1.012.989 1 1 0 0 0 1.012.988ZM25.362 35.173a.824.824 0 0 0 .313 1.142.867.867 0 0 0 1.167-.305.825.825 0 0 0-.313-1.143.867.867 0 0 0-1.167.306ZM21.72 32.331a.71.71 0 0 0-.954.25.674.674 0 0 0 .255.933.708.708 0 0 0 .955-.25.675.675 0 0 0-.255-.933ZM16.172 29.986a.522.522 0 0 0 .198.723.547.547 0 0 0 .74-.194.523.523 0 0 0-.197-.723.55.55 0 0 0-.74.194ZM11.717 27.906a.388.388 0 0 0 .525-.136.374.374 0 0 0-.14-.507.392.392 0 0 0-.527.138.372.372 0 0 0 .142.505ZM7.066 25.105a.232.232 0 0 0 .314-.081.222.222 0 0 0-.085-.307.23.23 0 0 0-.34.166.22.22 0 0 0 .111.222Z"/><path fill="#fff" d="M59.567 53.81a1.307 1.307 0 0 1-.782-.755c-.3.1-.554.305-.717.577-.159.27-.212.588-.15.895a1.35 1.35 0 0 1 1.058.286c.23.189.389.452.447.745a1.322 1.322 0 0 0 .94-.63 1.265 1.265 0 0 0 .09-1.112c-.288.097-.6.095-.886-.007ZM64.53 55.962a1.182 1.182 0 0 0-1.596.417 1.13 1.13 0 0 0 .428 1.56 1.183 1.183 0 0 0 1.596-.418 1.13 1.13 0 0 0-.427-1.56ZM69.182 58.765a1.024 1.024 0 0 0-1.382.361.977.977 0 0 0 .37 1.352 1.024 1.024 0 0 0 1.382-.362.976.976 0 0 0-.37-1.351ZM74.148 62.708a.827.827 0 0 0-.314-1.142.867.867 0 0 0-1.168.307.826.826 0 0 0 .315 1.14.864.864 0 0 0 1.167-.305ZM77.79 65.552a.704.704 0 0 0 .952-.25.675.675 0 0 0-.255-.933.71.71 0 0 0-.955.25.676.676 0 0 0 .257.933ZM83.338 67.895a.524.524 0 0 0-.2-.723.549.549 0 0 0-.74.194.522.522 0 0 0 .2.723.548.548 0 0 0 .74-.194ZM87.791 69.975a.392.392 0 0 0-.527.138.37.37 0 0 0 .032.413.389.389 0 0 0 .636-.043.373.373 0 0 0-.14-.508ZM92.444 72.778a.233.233 0 0 0-.314.083.223.223 0 0 0-.022.17.221.221 0 0 0 .107.135.233.233 0 0 0 .314-.081.223.223 0 0 0-.085-.307ZM39.226 45.812a1.323 1.323 0 0 1 .904.609c.278-.149.492-.393.603-.688.11-.293.106-.617-.01-.907a1.351 1.351 0 0 1-1.093-.102 1.3 1.3 0 0 1-.574-.659 1.31 1.31 0 0 0-.813.783 1.268 1.268 0 0 0 .11 1.108c.267-.145.574-.195.873-.144ZM35.453 43.854a1.137 1.137 0 0 0-.7-1.465 1.183 1.183 0 0 0-1.496.676 1.135 1.135 0 0 0 .7 1.465 1.182 1.182 0 0 0 1.496-.676ZM29.569 40.708a1.014 1.014 0 0 0-1.296.59.982.982 0 0 0 .603 1.267 1.014 1.014 0 0 0 1.298-.59.983.983 0 0 0-.605-1.267ZM23.797 40.595a.862.862 0 0 0 1.098-.492.83.83 0 0 0-.506-1.07.858.858 0 0 0-1.095.506.83.83 0 0 0 .503 1.056ZM18.718 38.625a.705.705 0 0 0 .896-.409.675.675 0 0 0-.417-.873.701.701 0 0 0-.896.407.678.678 0 0 0 .418.875ZM13.64 36.655a.546.546 0 0 0 .694-.318.528.528 0 0 0-.324-.676.546.546 0 0 0-.695.316.528.528 0 0 0 .325.678ZM8.56 34.683a.385.385 0 0 0 .494-.224.373.373 0 0 0-.231-.482.387.387 0 0 0-.494.225.373.373 0 0 0 .232.481ZM3.48 32.715a.23.23 0 0 0 .296-.134.223.223 0 0 0-.137-.287.229.229 0 0 0-.294.134.222.222 0 0 0 .136.287Z"/><path fill="#fff" d="M60.283 52.069a1.32 1.32 0 0 1-.903-.608 1.293 1.293 0 0 0-.604.687c-.11.293-.106.617.009.907a1.352 1.352 0 0 1 1.093.104c.262.146.465.378.574.657a1.308 1.308 0 0 0 .813-.78 1.264 1.264 0 0 0-.11-1.11 1.334 1.334 0 0 1-.872.143ZM64.754 55.492a1.182 1.182 0 0 0 1.497-.676 1.134 1.134 0 0 0-.698-1.463 1.183 1.183 0 0 0-1.497.676 1.135 1.135 0 0 0 .698 1.463ZM69.94 57.168a1.014 1.014 0 0 0 1.297-.591.981.981 0 0 0-.605-1.268 1.014 1.014 0 0 0-1.296.592.983.983 0 0 0 .603 1.267ZM75.71 57.286a.86.86 0 0 0-1.094.507.83.83 0 0 0 .507 1.071.86.86 0 0 0 1.095-.507.83.83 0 0 0-.507-1.07ZM80.79 59.256a.703.703 0 0 0-.894.41.676.676 0 0 0 .417.881.703.703 0 0 0 .894-.409.674.674 0 0 0-.417-.882ZM85.868 61.223a.54.54 0 0 0-.692.316.526.526 0 0 0 .323.676.546.546 0 0 0 .694-.318.522.522 0 0 0-.325-.674ZM90.957 63.198a.386.386 0 0 0-.529.368.374.374 0 0 0 .252.337.388.388 0 0 0 .494-.227.373.373 0 0 0-.217-.478ZM96.027 65.168a.229.229 0 0 0-.308.221.223.223 0 0 0 .15.201.234.234 0 0 0 .295-.134.225.225 0 0 0-.137-.288ZM39.828 48.093a1.277 1.277 0 0 0 .302-1.672 1.352 1.352 0 0 1-1.095.086 1.31 1.31 0 0 1-.675-.551 1.301 1.301 0 0 0-.663.907 1.276 1.276 0 0 0 .306 1.075 1.34 1.34 0 0 1 1.831.155h-.006ZM33.414 47.286a1.164 1.164 0 0 0 1.352-.926 1.141 1.141 0 0 0-.946-1.323 1.166 1.166 0 0 0-1.352.926 1.145 1.145 0 0 0 .946 1.323ZM28.061 46.208a1.014 1.014 0 0 0 1.171-.803.99.99 0 0 0-.82-1.145 1.014 1.014 0 0 0-1.172.802.994.994 0 0 0 .822 1.146ZM22.71 45.13a.853.853 0 0 0 .99-.676.845.845 0 0 0-.693-.968.855.855 0 0 0-.99.676.845.845 0 0 0 .692.968ZM16.786 43.26a.676.676 0 0 0 .566.79.694.694 0 0 0 .807-.552.676.676 0 0 0-.566-.791.694.694 0 0 0-.807.553ZM11.567 42.359a.53.53 0 0 0 .439.613.538.538 0 0 0 .627-.429.53.53 0 0 0-.44-.613.54.54 0 0 0-.626.429ZM6.648 41.894a.377.377 0 1 0 .121-.744.377.377 0 0 0-.12.744ZM1.303 40.818a.227.227 0 0 0 .263-.27.224.224 0 0 0-.183-.17.23.23 0 0 0-.266.18.224.224 0 0 0 .186.26Z"/><path fill="#fff" d="M59.68 49.788a1.283 1.283 0 0 0-.471.78c-.056.309.004.626.169.893a1.343 1.343 0 0 1 1.093-.087c.281.102.52.296.676.551a1.29 1.29 0 0 0 .662-.907 1.265 1.265 0 0 0-.306-1.073 1.343 1.343 0 0 1-1.831-.157h.008ZM65.69 52.846a1.166 1.166 0 0 0 1.352-.927 1.144 1.144 0 0 0-.947-1.323 1.168 1.168 0 0 0-1.351.927 1.145 1.145 0 0 0 .946 1.323ZM71.446 51.675a1.014 1.014 0 0 0-1.17.801.992.992 0 0 0 .819 1.146 1.014 1.014 0 0 0 1.172-.801.99.99 0 0 0-.82-1.146ZM76.799 52.753a.846.846 0 0 0-.99.676.845.845 0 0 0 .692.968.844.844 0 0 0 .99-.676.845.845 0 0 0-.692-.968ZM82.717 54.622a.685.685 0 0 0-.566-.79.697.697 0 0 0-.81.553.676.676 0 0 0 .567.791.698.698 0 0 0 .81-.554ZM87.942 55.522a.531.531 0 0 0-.44-.613.54.54 0 0 0-.627.43.532.532 0 0 0 .44.612.54.54 0 0 0 .627-.429ZM92.855 55.985a.386.386 0 0 0-.447.306.377.377 0 0 0 .313.436.385.385 0 0 0 .446-.306.377.377 0 0 0-.312-.436ZM98.208 57.065a.231.231 0 0 0-.266.181.226.226 0 0 0 .187.262.23.23 0 0 0 .264-.184.225.225 0 0 0-.185-.26ZM38.767 49.523a1.352 1.352 0 0 1 1.063.268 1.27 1.27 0 0 0 0-1.698 1.342 1.342 0 0 1-1.832-.155 1.275 1.275 0 0 0 0 2.01c.2-.225.472-.375.769-.425ZM33.368 50.085a1.142 1.142 0 1 0-1.169-1.142 1.157 1.157 0 0 0 1.17 1.142ZM28.917 48.943a1.015 1.015 0 1 0-1.014.989.998.998 0 0 0 1.014-.989ZM21.59 48.943a.855.855 0 1 0 .854-.845.845.845 0 0 0-.855.845ZM16.982 48.26a.676.676 0 1 0 .697.676.691.691 0 0 0-.697-.675ZM12.055 48.943a.542.542 0 1 0-.337.49.535.535 0 0 0 .337-.49ZM6.057 48.566a.377.377 0 1 0 .385.377.382.382 0 0 0-.385-.377ZM.595 48.72a.224.224 0 1 0 .231.224.227.227 0 0 0-.23-.224ZM60.743 48.359a1.338 1.338 0 0 1-1.063-.27 1.27 1.27 0 0 0 0 1.699 1.34 1.34 0 0 1 1.831.157 1.274 1.274 0 0 0 0-2.012 1.32 1.32 0 0 1-.768.426ZM66.141 47.798a1.143 1.143 0 1 0 1.168 1.14 1.156 1.156 0 0 0-1.168-1.14ZM71.602 49.926a1 1 0 0 0 1.012-.988 1 1 0 0 0-1.013-.988 1 1 0 0 0-1.011.988 1 1 0 0 0 1.011.988ZM76.21 48.938a.855.855 0 1 0 .854-.835.845.845 0 0 0-.853.835ZM82.526 49.62a.69.69 0 0 0 .698-.682.69.69 0 0 0-.698-.683.69.69 0 0 0-.697.683.69.69 0 0 0 .697.683ZM87.988 49.467c.3 0 .543-.237.543-.529a.536.536 0 0 0-.543-.529c-.3 0-.542.237-.542.53 0 .291.243.528.542.528ZM93.451 48.563a.376.376 0 1 0 .017.752.376.376 0 0 0-.017-.752ZM98.914 48.72a.227.227 0 0 0-.217.272.225.225 0 0 0 .41.078.226.226 0 0 0-.106-.334.225.225 0 0 0-.087-.016Z"/><path fill="#fff" d="M39.037 51.38a1.351 1.351 0 0 1 1.093.084c.164-.266.225-.583.17-.89a1.286 1.286 0 0 0-.472-.783 1.351 1.351 0 0 1-1.834.157 1.275 1.275 0 0 0-.076 1.604c.115.157.263.287.435.378.157-.257.4-.452.684-.55ZM33.82 52.85a1.147 1.147 0 0 0 .948-1.324 1.166 1.166 0 0 0-1.352-.925 1.146 1.146 0 0 0-.948 1.322 1.166 1.166 0 0 0 1.352.926ZM28.413 53.62a.992.992 0 0 0 .821-1.146 1.014 1.014 0 0 0-1.172-.802.993.993 0 0 0-.82 1.145 1.013 1.013 0 0 0 1.171.803ZM23.701 53.434a.855.855 0 0 0-.99-.676.845.845 0 0 0-.694.968.844.844 0 0 0 .99.676.844.844 0 0 0 .694-.968ZM18.168 54.389a.698.698 0 0 0-.81-.555.677.677 0 0 0-.573.8.698.698 0 0 0 .81.554.686.686 0 0 0 .573-.8ZM12.007 54.912a.53.53 0 1 0 .188 1.044.53.53 0 0 0 .44-.613.54.54 0 0 0-.628-.43ZM7.101 56.296a.384.384 0 0 0-.453-.31.377.377 0 0 0-.312.435.384.384 0 0 0 .446.304.379.379 0 0 0 .32-.429ZM1.303 57.07a.224.224 0 0 0-.185.26.227.227 0 0 0 .265.181.224.224 0 0 0 .187-.26.229.229 0 0 0-.267-.181ZM60.473 46.503a1.351 1.351 0 0 1-1.095-.086 1.269 1.269 0 0 0 .304 1.673 1.343 1.343 0 0 1 1.831-.157 1.265 1.265 0 0 0 .305-1.073 1.289 1.289 0 0 0-.663-.907c-.158.256-.399.45-.682.55ZM66.094 47.28a1.142 1.142 0 0 0 .948-1.322 1.166 1.166 0 0 0-1.352-.926 1.145 1.145 0 0 0-.948 1.323 1.166 1.166 0 0 0 1.352.926ZM71.095 44.256a.992.992 0 0 0-.821 1.144 1.014 1.014 0 0 0 1.172.803.99.99 0 0 0 .82-1.146 1.014 1.014 0 0 0-1.171-.8ZM75.807 44.447a.843.843 0 0 0 .99.676.845.845 0 0 0 .695-.968.845.845 0 0 0-.99-.676.845.845 0 0 0-.695.968ZM81.34 43.493a.697.697 0 0 0 .81.554.674.674 0 0 0 .565-.79.696.696 0 0 0-.807-.555.688.688 0 0 0-.568.79ZM87.502 42.976a.53.53 0 0 0 .44-.614.54.54 0 0 0-.63-.429.532.532 0 0 0-.438.614.542.542 0 0 0 .628.429ZM92.407 41.585a.387.387 0 0 0 .754.018.378.378 0 0 0 .005-.148.383.383 0 0 0-.447-.306.377.377 0 0 0-.312.436ZM98.206 40.815a.224.224 0 0 0 .187-.261.23.23 0 0 0-.413-.09.225.225 0 0 0-.038.168.229.229 0 0 0 .264.183Z"/><path fill="#fff" d="M39.632 53.162a1.353 1.353 0 0 1 1.093-.103c.115-.29.118-.613.008-.906a1.296 1.296 0 0 0-.603-.689 1.32 1.32 0 0 1-.904.61c-.298.051-.605 0-.871-.144a1.267 1.267 0 0 0 .208 1.592c.141.135.31.236.496.297.11-.279.312-.51.573-.657ZM34.756 55.495a1.133 1.133 0 0 0 .698-1.463 1.183 1.183 0 0 0-1.884-.449 1.137 1.137 0 0 0-.311 1.236 1.183 1.183 0 0 0 1.497.676ZM28.878 55.32a.981.981 0 0 0-.077 1.828c.243.111.52.122.77.03a.982.982 0 0 0 .076-1.829 1.014 1.014 0 0 0-.77-.03ZM24.389 58.858a.832.832 0 0 0 .507-1.072.86.86 0 0 0-1.097-.498.828.828 0 0 0-.507 1.07.858.858 0 0 0 1.097.5ZM18.72 59.261a.676.676 0 0 0-.052 1.261.704.704 0 0 0 .53.022.677.677 0 0 0 .418-.875.704.704 0 0 0-.896-.408ZM13.641 61.231a.53.53 0 0 0-.324.676.547.547 0 0 0 .997.046.527.527 0 0 0 .022-.406.548.548 0 0 0-.695-.316ZM8.562 63.201a.376.376 0 0 0-.231.484.388.388 0 0 0 .71.031.375.375 0 0 0 .015-.29.388.388 0 0 0-.494-.225ZM3.483 65.171a.223.223 0 0 0-.136.289.23.23 0 0 0 .422.018.225.225 0 0 0 .009-.173.234.234 0 0 0-.295-.134ZM59.87 44.72a1.353 1.353 0 0 1-1.094.102 1.266 1.266 0 0 0 0 .906c.11.296.325.541.603.69a1.339 1.339 0 0 1 1.776-.465 1.265 1.265 0 0 0 .11-1.11 1.31 1.31 0 0 0-.813-.781c-.112.28-.318.513-.583.657ZM64.752 42.386a1.133 1.133 0 0 0-.698 1.463 1.183 1.183 0 0 0 1.885.45 1.134 1.134 0 0 0 .31-1.237 1.182 1.182 0 0 0-1.497-.676ZM70.63 42.562a.983.983 0 0 0 .078-1.83 1.013 1.013 0 0 0-.769-.029.983.983 0 0 0-.078 1.829c.242.11.519.121.769.03ZM75.124 39.02a.831.831 0 0 0-.507 1.072.86.86 0 0 0 1.377.34.832.832 0 0 0-.219-1.382.862.862 0 0 0-.65-.03ZM80.788 38.622a.675.675 0 0 0 .417-.876.703.703 0 0 0-.894-.408.676.676 0 0 0-.053 1.261.703.703 0 0 0 .53.023ZM85.868 36.65a.526.526 0 0 0 .323-.676.546.546 0 0 0-.996-.047.529.529 0 0 0-.021.405.543.543 0 0 0 .694.318ZM90.947 34.68a.372.372 0 0 0 .03-.695.388.388 0 0 0-.51.18.375.375 0 0 0 .187.503.387.387 0 0 0 .293.012ZM96.027 32.712a.226.226 0 0 0 .137-.289.23.23 0 0 0-.293-.134.224.224 0 0 0-.151.201.223.223 0 0 0 .133.214.231.231 0 0 0 .174.008Z"/><path fill="#fff" d="M40.536 54.816a1.352 1.352 0 0 1 1.058-.285 1.262 1.262 0 0 0-.153-.896 1.313 1.313 0 0 0-.716-.576 1.308 1.308 0 0 1-.782.754c-.286.1-.598.1-.884 0a1.269 1.269 0 0 0 .088 1.111 1.322 1.322 0 0 0 .941.63c.06-.29.218-.55.448-.738ZM36.148 57.942a1.127 1.127 0 0 0 .428-1.56 1.182 1.182 0 0 0-1.937-.127 1.125 1.125 0 0 0-.086 1.27 1.182 1.182 0 0 0 1.595.417ZM31.71 59.13a1.014 1.014 0 0 0-1.381-.362.976.976 0 0 0-.372 1.352 1.024 1.024 0 0 0 1.679.11.974.974 0 0 0 .073-1.1ZM25.676 61.57a.825.825 0 0 0-.312 1.141.864.864 0 0 0 1.417.094.826.826 0 0 0 .063-.928.863.863 0 0 0-1.168-.306ZM21.025 64.374a.677.677 0 0 0 .17 1.25.704.704 0 0 0 .731-.243.674.674 0 0 0 .052-.759.706.706 0 0 0-.953-.248ZM16.372 67.177a.525.525 0 0 0 .133.97.548.548 0 0 0 .66-.374.521.521 0 0 0-.053-.403.547.547 0 0 0-.74-.193ZM12.105 70.63a.37.37 0 0 0-.094-.682.39.39 0 0 0-.29.037.373.373 0 0 0-.141.507.389.389 0 0 0 .525.138ZM7.07 72.781a.222.222 0 0 0 .055.412.232.232 0 0 0 .24-.08.22.22 0 0 0 .016-.249.232.232 0 0 0-.312-.083ZM58.972 43.065a1.34 1.34 0 0 1-1.057.287c-.062.307-.008.625.152.894.162.272.416.477.716.576a1.309 1.309 0 0 1 .782-.753c.287-.1.599-.1.886 0a1.271 1.271 0 0 0-.09-1.112 1.322 1.322 0 0 0-.94-.63c-.058.29-.217.552-.449.738ZM63.943 42.07c.645 0 1.168-.511 1.168-1.142 0-.63-.523-1.142-1.168-1.142-.645 0-1.167.511-1.167 1.142 0 .63.522 1.142 1.167 1.142ZM67.799 38.752a1.025 1.025 0 0 0 1.677.112.98.98 0 0 0 .075-1.1 1.024 1.024 0 0 0-1.678-.111.977.977 0 0 0-.075 1.099ZM73.832 36.312a.827.827 0 0 0 .313-1.142.863.863 0 0 0-1.418-.094.825.825 0 0 0-.063.93.867.867 0 0 0 1.168.306ZM78.485 33.514a.674.674 0 0 0 .255-.933.708.708 0 0 0-1.285.163.676.676 0 0 0 .069.52.71.71 0 0 0 .961.25ZM83.136 30.706a.524.524 0 0 0 .198-.723.548.548 0 0 0-.898-.06.524.524 0 0 0 .291.836.55.55 0 0 0 .41-.053ZM87.41 27.25a.373.373 0 0 0-.141.508.39.39 0 0 0 .636.044.371.371 0 0 0 .031-.413.39.39 0 0 0-.527-.138ZM92.442 25.102a.222.222 0 0 0-.056-.41.232.232 0 0 0-.24.078.222.222 0 0 0 .123.354c.059.015.12.007.173-.022Z"/><path fill="#fff" d="M42.71 55.831a1.267 1.267 0 0 0-.31-.854 1.318 1.318 0 0 0-.807-.446 1.287 1.287 0 0 1-.637.873c-.263.15-.57.205-.868.157a1.268 1.268 0 0 0 .284 1.08 1.338 1.338 0 0 0 1.037.461c.005-.298.116-.584.311-.81a1.328 1.328 0 0 1 .99-.46ZM37.954 60.116a1.125 1.125 0 0 0 .144-1.608 1.183 1.183 0 0 0-1.93.203 1.126 1.126 0 0 0 .14 1.263 1.182 1.182 0 0 0 1.646.142ZM33.67 63.431a.97.97 0 0 0 .123-1.392 1.028 1.028 0 0 0-1.424-.123.975.975 0 0 0-.125 1.394 1.027 1.027 0 0 0 1.426.121ZM28.285 65.467a.822.822 0 0 0-.105 1.183.869.869 0 0 0 1.416-.152.822.822 0 0 0-.107-.93.867.867 0 0 0-1.204-.1ZM25.184 69.101a.708.708 0 0 0-1.152.122.675.675 0 0 0 .083.755.711.711 0 0 0 .985.085.676.676 0 0 0 .084-.962ZM20.117 72.567a.523.523 0 0 0-.066.746.55.55 0 0 0 .895-.095.523.523 0 0 0-.065-.586.55.55 0 0 0-.764-.065ZM16.034 76.116a.373.373 0 0 0-.047.53.392.392 0 0 0 .636-.066.37.37 0 0 0-.047-.416.39.39 0 0 0-.542-.048ZM11.95 79.666a.222.222 0 0 0-.027.318.232.232 0 0 0 .379-.04.22.22 0 0 0-.028-.249.236.236 0 0 0-.324-.029ZM56.798 42.051c-.006.314.104.618.309.855.207.24.494.399.807.446a1.294 1.294 0 0 1 .637-.875c.264-.15.571-.205.87-.157a1.275 1.275 0 0 0-.285-1.08 1.333 1.333 0 0 0-1.037-.46 1.276 1.276 0 0 1-.31.81 1.334 1.334 0 0 1-.991.461ZM61.559 37.767a1.125 1.125 0 0 0-.145 1.608 1.183 1.183 0 0 0 1.93-.204 1.122 1.122 0 0 0-.141-1.264 1.182 1.182 0 0 0-1.644-.14ZM67.265 34.572a1.027 1.027 0 0 0-1.672.177.975.975 0 0 0 .122 1.095 1.027 1.027 0 0 0 1.425.122.979.979 0 0 0 .125-1.394ZM71.223 32.416a.823.823 0 0 0 .105-1.183.867.867 0 0 0-1.413.15.827.827 0 0 0 .103.93.87.87 0 0 0 1.205.103ZM74.323 28.783a.708.708 0 0 0 1.153-.123.678.678 0 0 0-.083-.755.71.71 0 0 0-1.153.122.676.676 0 0 0 .084.756ZM79.39 25.315a.52.52 0 0 0 .067-.745.55.55 0 0 0-.894.094.524.524 0 0 0 .064.586.551.551 0 0 0 .764.065ZM83.474 21.765a.372.372 0 0 0 .048-.53.392.392 0 0 0-.636.068.371.371 0 0 0 .046.416.392.392 0 0 0 .542.046ZM87.56 18.217a.221.221 0 0 0 .026-.316.232.232 0 0 0-.378.04.222.222 0 0 0 .184.327c.06.005.12-.013.167-.051Z"/><path fill="#fff" d="M43.143 57.545a1.324 1.324 0 0 1 .893-.624c-.05-.31-.212-.59-.456-.789a1.327 1.327 0 0 0-.875-.3 1.275 1.275 0 0 1-.471.968 1.333 1.333 0 0 1-.83.302 1.284 1.284 0 0 0 .473 1.014 1.336 1.336 0 0 0 1.103.279c-.047-.294.01-.595.163-.85ZM38.473 62.09a1.183 1.183 0 0 0 1.645-.14 1.124 1.124 0 0 0-.145-1.61 1.183 1.183 0 0 0-1.644.141 1.121 1.121 0 0 0 .144 1.609ZM34.937 64.671a.974.974 0 0 0 .125 1.392 1.028 1.028 0 0 0 1.426-.121.974.974 0 0 0-.125-1.392 1.027 1.027 0 0 0-1.426.121ZM32.855 69.934a.82.82 0 0 0-.105-1.182.868.868 0 0 0-1.204.1.824.824 0 0 0 .106 1.184.865.865 0 0 0 1.203-.102ZM28.155 73.05a.676.676 0 0 0 .086.961.71.71 0 0 0 .983-.083.676.676 0 0 0-.086-.963.71.71 0 0 0-.983.085ZM24.764 77.24a.522.522 0 0 0 .067.745.549.549 0 0 0 .864-.245.523.523 0 0 0-.168-.566.551.551 0 0 0-.763.066ZM21.373 81.428a.371.371 0 0 0 .047.53.392.392 0 0 0 .543-.045.369.369 0 0 0-.048-.53.391.391 0 0 0-.542.045ZM17.982 85.619a.22.22 0 0 0 .03.315.232.232 0 0 0 .365-.103.22.22 0 0 0-.07-.24.234.234 0 0 0-.325.028ZM56.362 40.337a1.323 1.323 0 0 1-.894.623c.05.31.211.59.455.789.246.202.556.309.875.302a1.284 1.284 0 0 1 .471-.97c.234-.191.527-.298.83-.302a1.278 1.278 0 0 0-.473-1.014 1.336 1.336 0 0 0-1.104-.278c.048.293-.009.594-.16.85ZM61.037 35.792a1.183 1.183 0 0 0-1.646.14 1.122 1.122 0 0 0 .144 1.608 1.183 1.183 0 0 0 1.645-.14 1.125 1.125 0 0 0-.143-1.608ZM64.572 33.21a.975.975 0 0 0-.126-1.392 1.025 1.025 0 0 0-1.424.121.975.975 0 0 0 .125 1.394 1.027 1.027 0 0 0 1.425-.123ZM66.653 27.947a.823.823 0 0 0 .105 1.183.87.87 0 0 0 1.204-.103.824.824 0 0 0-.104-1.183.869.869 0 0 0-1.205.103ZM71.359 24.831a.677.677 0 0 0-.087-.96.71.71 0 0 0-.983.084.677.677 0 0 0 .086.96.71.71 0 0 0 .984-.084ZM74.737 20.643a.523.523 0 0 0-.067-.747.55.55 0 0 0-.864.247.52.52 0 0 0 .168.564.553.553 0 0 0 .763-.064ZM78.135 16.45a.372.372 0 0 0-.047-.531.392.392 0 0 0-.542.046.373.373 0 0 0 .047.53.392.392 0 0 0 .542-.046ZM81.528 12.264a.22.22 0 0 0-.029-.315.232.232 0 0 0-.366.104.22.22 0 0 0 .073.24.234.234 0 0 0 .322-.029ZM44.775 58.535a1.31 1.31 0 0 1 .77-.764 1.297 1.297 0 0 0-.59-.701 1.352 1.352 0 0 0-.913-.149 1.278 1.278 0 0 1-.293 1.036 1.325 1.325 0 0 1-.764.438 1.294 1.294 0 0 0 .646.919 1.352 1.352 0 0 0 1.137.087c-.1-.28-.098-.587.007-.866ZM42.148 61.828a1.183 1.183 0 0 0-1.597.419 1.128 1.128 0 0 0 .427 1.56 1.183 1.183 0 0 0 1.597-.42 1.129 1.129 0 0 0-.428-1.56ZM39.338 66.586a1.025 1.025 0 0 0-1.382.361.978.978 0 0 0 .37 1.352 1.026 1.026 0 0 0 1.382-.362.978.978 0 0 0-.37-1.351ZM36.84 72.486a.826.826 0 0 0-.312-1.143.865.865 0 0 0-1.168.306.828.828 0 0 0 .313 1.142.867.867 0 0 0 1.167-.305ZM33.369 77.373a.69.69 0 0 0 .697-.682.69.69 0 0 0-.697-.683.69.69 0 0 0-.698.683.69.69 0 0 0 .698.682ZM30.91 80.859a.548.548 0 0 0-.74.194.524.524 0 0 0 .198.723.55.55 0 0 0 .74-.194.524.524 0 0 0-.198-.723ZM28.106 85.617a.388.388 0 0 0-.526.137.373.373 0 0 0 .14.506.39.39 0 0 0 .526-.138.372.372 0 0 0-.14-.505ZM25.292 90.375a.232.232 0 0 0-.314.081.223.223 0 0 0 .085.307.232.232 0 0 0 .342-.166.22.22 0 0 0-.113-.222ZM54.733 39.346a1.298 1.298 0 0 1-.777.757c.105.298.314.547.59.701.278.157.602.21.915.15a1.266 1.266 0 0 1 .293-1.037c.196-.228.465-.383.762-.437a1.297 1.297 0 0 0-.646-.92 1.352 1.352 0 0 0-1.137-.085c.104.281.104.59 0 .871ZM57.362 36.048a1.183 1.183 0 0 0 1.595-.417 1.127 1.127 0 0 0-.427-1.561 1.182 1.182 0 0 0-1.595.419 1.13 1.13 0 0 0 .427 1.56ZM60.17 31.296a1.024 1.024 0 0 0 1.382-.362.978.978 0 0 0-.37-1.352 1.025 1.025 0 0 0-1.382.364.977.977 0 0 0 .37 1.35ZM62.667 25.404a.825.825 0 0 0 .313 1.14.863.863 0 0 0 1.167-.305.824.824 0 0 0-.312-1.14.864.864 0 0 0-1.168.305ZM65.783 21.78a.704.704 0 0 0 .953-.25.677.677 0 0 0-.255-.93.706.706 0 0 0-.953.247.678.678 0 0 0 .255.933ZM68.6 17.022a.548.548 0 0 0 .74-.192.523.523 0 0 0-.2-.723.548.548 0 0 0-.74.192.522.522 0 0 0 .2.723ZM71.409 12.266a.39.39 0 0 0 .525-.138.373.373 0 0 0-.141-.507.388.388 0 0 0-.526.137.374.374 0 0 0 .142.508ZM74.218 7.51a.233.233 0 0 0 .313-.083.22.22 0 0 0-.084-.305.23.23 0 0 0-.312.081.224.224 0 0 0 .016.25c.018.023.04.043.067.057Z"/><path fill="#fff" d="M46.556 59.236a1.295 1.295 0 0 1 .621-.885 1.31 1.31 0 0 0-.704-.59c-.301-.106-.63-.103-.928.01a1.266 1.266 0 0 1-.105 1.068c-.153.26-.392.459-.675.563a1.311 1.311 0 0 0 .799.794 1.35 1.35 0 0 0 1.133-.108 1.257 1.257 0 0 1-.142-.852ZM44.151 65.14c.645 0 1.168-.512 1.168-1.143 0-.63-.523-1.142-1.168-1.142-.644 0-1.167.511-1.167 1.142 0 .63.523 1.142 1.167 1.142ZM43.234 69.353a.982.982 0 0 0-.605-1.267 1.013 1.013 0 0 0-1.296.591.981.981 0 0 0 .605 1.267 1.014 1.014 0 0 0 1.296-.591ZM41.218 74.32a.832.832 0 0 0-.507-1.07.861.861 0 0 0-1.096.506.835.835 0 0 0 .225.904.858.858 0 0 0 1.379-.34ZM38.785 78.41a.703.703 0 0 0-.893.41.675.675 0 0 0 .417.873.7.7 0 0 0 .894-.407.676.676 0 0 0-.418-.875ZM36.864 83.574a.544.544 0 0 0-.694.316.529.529 0 0 0 .324.676.546.546 0 0 0 .695-.318.528.528 0 0 0-.325-.674ZM34.943 88.736a.387.387 0 0 0-.493.224.376.376 0 0 0 .23.484.388.388 0 0 0 .493-.225.376.376 0 0 0-.23-.483ZM33.022 93.897a.231.231 0 0 0-.294.134.224.224 0 0 0 .138.289.231.231 0 0 0 .293-.134.224.224 0 0 0-.137-.289ZM52.954 38.647a1.288 1.288 0 0 1-.623.884 1.316 1.316 0 0 0 1.625.572 1.266 1.266 0 0 1 .105-1.067c.154-.26.392-.458.676-.561a1.31 1.31 0 0 0-.8-.796 1.352 1.352 0 0 0-1.133.108c.15.26.203.565.15.86ZM54.958 34.957a1.183 1.183 0 0 0 1.497-.676 1.138 1.138 0 0 0-.7-1.465 1.182 1.182 0 0 0-1.497.676 1.134 1.134 0 0 0 .7 1.465ZM56.274 28.528a.981.981 0 0 0 .605 1.267 1.015 1.015 0 0 0 1.295-.591.982.982 0 0 0-.604-1.267 1.013 1.013 0 0 0-1.296.591ZM58.29 23.563a.83.83 0 0 0 .507 1.07.862.862 0 0 0 1.096-.506.83.83 0 0 0-.507-1.071.86.86 0 0 0-1.096.507ZM60.722 19.47a.701.701 0 0 0 .894-.407.676.676 0 0 0-.417-.875.703.703 0 0 0-.894.407.674.674 0 0 0 .417.876ZM62.644 14.309a.546.546 0 0 0 .694-.318.525.525 0 0 0-.325-.676.542.542 0 0 0-.692.316.527.527 0 0 0 .323.678ZM64.566 9.146a.387.387 0 0 0 .494-.225.373.373 0 0 0-.232-.482.387.387 0 0 0-.493.225.371.371 0 0 0 .231.482ZM66.488 3.986a.229.229 0 0 0 .307-.221.223.223 0 0 0-.15-.2.23.23 0 0 0-.294.134.221.221 0 0 0 .061.242c.022.02.048.035.076.045ZM48.887 58.646a1.338 1.338 0 0 0-1.71-.292 1.273 1.273 0 0 1-.476 1.737 1.317 1.317 0 0 0 .93.647 1.353 1.353 0 0 0 1.097-.297 1.274 1.274 0 0 1 .16-1.791v-.004ZM47.113 63.588a1.164 1.164 0 0 0-1.351.926 1.143 1.143 0 0 0 .946 1.323 1.166 1.166 0 0 0 1.351-.926 1.145 1.145 0 0 0-.946-1.323ZM46.138 69.005a1.014 1.014 0 0 0-1.172.803.992.992 0 0 0 .821 1.145 1.014 1.014 0 0 0 1.17-.803.99.99 0 0 0-.819-1.145ZM45.17 74.415a.855.855 0 0 0-.99.676.845.845 0 0 0 .694.968.846.846 0 0 0 .99-.676.845.845 0 0 0-.694-.968ZM44.187 79.825a.698.698 0 0 0-.81.554.685.685 0 0 0 .567.79.698.698 0 0 0 .809-.553.675.675 0 0 0-.566-.791ZM43.21 85.235a.54.54 0 0 0-.626.43.532.532 0 0 0 .439.614.54.54 0 0 0 .627-.43.531.531 0 0 0-.44-.614ZM42.236 90.647a.383.383 0 0 0-.447.304.375.375 0 0 0 .313.436.384.384 0 0 0 .446-.305.375.375 0 0 0-.313-.435ZM41.26 96.057a.227.227 0 0 0-.265.181.223.223 0 0 0 .104.23.223.223 0 0 0 .083.03.227.227 0 0 0 .265-.182.225.225 0 0 0-.187-.26Z"/><path fill="#fff" d="M50.62 39.237a1.338 1.338 0 0 0 1.71.294 1.264 1.264 0 0 1-.085-1.07c.104-.28.303-.517.562-.667a1.322 1.322 0 0 0-.928-.647 1.342 1.342 0 0 0-1.098.297 1.274 1.274 0 0 1-.16 1.793ZM52.395 34.286a1.166 1.166 0 0 0 1.351-.926 1.146 1.146 0 0 0-.947-1.323 1.168 1.168 0 0 0-1.352.926 1.144 1.144 0 0 0 .948 1.323ZM53.37 28.876a1.014 1.014 0 0 0 1.172-.8.99.99 0 0 0-.82-1.146 1.014 1.014 0 0 0-1.172.8.992.992 0 0 0 .82 1.146ZM54.346 23.466a.844.844 0 0 0 .99-.675.845.845 0 0 0-.692-.969.844.844 0 0 0-.99.676.845.845 0 0 0 .692.968ZM55.321 18.056a.698.698 0 0 0 .81-.554.675.675 0 0 0-.566-.79.698.698 0 0 0-.81.554.685.685 0 0 0 .566.79ZM56.298 12.646a.54.54 0 0 0 .626-.429.528.528 0 0 0-.439-.613.54.54 0 0 0-.627.429.53.53 0 0 0 .44.613ZM57.34 7.241a.381.381 0 0 0 .385-.376.381.381 0 0 0-.385-.377.381.381 0 0 0-.385.377c0 .208.172.376.385.376ZM58.25 1.828a.23.23 0 0 0 .264-.183.226.226 0 0 0-.184-.26.23.23 0 0 0-.267.184.224.224 0 0 0 .104.228.226.226 0 0 0 .083.031Z"/></svg>